HIERARCHY
ROOT Hips
{
	OFFSET 0.000000 0.000000 0.000000 
	CHANNELS 6 Xposition Yposition Zposition Zrotation Yrotation Xrotation
	JOINT LeftUpLeg
	{
		OFFSET 1.363060 -1.794630 0.839290 
		CHANNELS 3 Zrotation Yrotation Xrotation
		JOINT LeftLeg
		{
			OFFSET 2.448110 -6.726130 0.000000 
			CHANNELS 3 Zrotation Yrotation Xrotation
			JOINT LeftFoot
			{
				OFFSET 2.562200 -7.039590 0.000000 
				CHANNELS 3 Zrotation Yrotation Xrotation
				JOINT LeftToeBase
				{
					OFFSET 0.157640 -0.433110 2.322550 
					CHANNELS 3 Zrotation Yrotation Xrotation
					End Site
					{
						OFFSET 0.000000 0.000000 0.000000 
					}
				}
			}
		}
	}
	JOINT RightUpLeg
	{
		OFFSET -1.305520 -1.794630 0.839290 
		CHANNELS 3 Zrotation Yrotation Xrotation
		JOINT RightLeg
		{
			OFFSET -2.542530 -6.985550 0.000000 
			CHANNELS 3 Zrotation Yrotation Xrotation
			JOINT RightFoot
			{
				OFFSET -2.568260 -7.056230 0.000000 
				CHANNELS 3 Zrotation Yrotation Xrotation
				JOINT RightToeBase
				{
					OFFSET -0.164730 -0.452590 2.363150 
					CHANNELS 3 Zrotation Yrotation Xrotation
					End Site
					{
						OFFSET 0.000000 0.000000 0.000000 
					}
				}
			}
		}
	}
	JOINT Spine
	{
		OFFSET 0.028270 2.035590 -0.193380 
		CHANNELS 3 Zrotation Yrotation Xrotation
		JOINT Spine1
		{
			OFFSET 0.056720 2.048850 -0.042750 
			CHANNELS 3 Zrotation Yrotation Xrotation
			JOINT Neck1
			{
				OFFSET -0.054170 1.746240 0.172020 
				CHANNELS 3 Zrotation Yrotation Xrotation
				JOINT Head
				{
					OFFSET 0.104070 1.761360 -0.123970 
					CHANNELS 3 Zrotation Yrotation Xrotation
					End Site
					{
						OFFSET 0.000000 0.000000 0.000000 
					}
				}
			}
			JOINT LeftArm
			{
				OFFSET 3.362410 1.200890 -0.311210 
				CHANNELS 3 Zrotation Yrotation Xrotation
				JOINT LeftForeArm
				{
					OFFSET 4.983000 -0.000000 -0.000000 
					CHANNELS 3 Zrotation Yrotation Xrotation
					JOINT LeftHand
					{
						OFFSET 3.483560 -0.000000 -0.000000 
						CHANNELS 3 Zrotation Yrotation Xrotation
						JOINT LeftHandIndex1
						{
							OFFSET 0.715260 -0.000000 -0.000000 
							CHANNELS 3 Zrotation Yrotation Xrotation
							End Site
							{
								OFFSET 0.000000 0.000000 0.000000 
							}
						}
					}
				}
			}
			JOINT RightArm
			{
				OFFSET -3.136600 1.374050 -0.404650 
				CHANNELS 3 Zrotation Yrotation Xrotation
				JOINT RightForeArm
				{
					OFFSET -5.241900 -0.000000 -0.000000 
					CHANNELS 3 Zrotation Yrotation Xrotation
					JOINT RightHand
					{
						OFFSET -3.444170 -0.000000 -0.000000 
						CHANNELS 3 Zrotation Yrotation Xrotation
						JOINT RightHandIndex1
						{
							OFFSET -0.622530 -0.000000 -0.000000 
							CHANNELS 3 Zrotation Yrotation Xrotation
							End Site
							{
								OFFSET 0.000000 0.000000 0.000000 
							}
						}
					}
				}
			}
		}
	}
}
MOTION
Frames: 10
Frame Time: 0.041667
-0.929910 18.518491 7.893822 -7.280661 -1.067845 11.889474 -19.020854 -34.748849 13.162660 -3.612653 -1.853161 -0.385103 -12.480151 38.732106 -19.868535 0.006100 0.504200 1.385400 22.442317 26.618468 1.570494 3.524842 -0.190103 1.505264 6.263781 -20.964793 0.317554 -0.085700 -1.888500 5.197600 30.245637 12.425778 -16.693307 -15.391809 0.515018 -14.939335 4.874872 -14.450161 25.187555 0.353600 -6.763400 7.901300 -73.521063 16.186234 -11.526817 109.465873 -57.548030 -82.662406 -1.606248 -0.640045 -12.411947 -7.125000 0.000000 0.000000 43.455156 46.362646 40.467697 -37.605955 38.360884 -16.804700 0.398821 -0.431626 51.660800 7.125000 0.000000 0.000000 
-0.940424 18.507872 7.897923 -7.461894 -1.632685 11.710173 -19.058196 -34.923839 13.761366 -3.637391 -1.896449 -0.514049 -12.618441 39.170096 -20.706283 0.013000 0.736100 2.023000 22.833029 26.230474 1.629807 3.503250 -0.199000 1.673502 5.991139 -20.210876 0.743684 -0.081900 -1.845500 5.078800 28.510454 12.294804 -16.184824 -15.895278 0.665972 -14.289794 5.657549 -15.052644 26.756033 0.334700 -6.925800 8.303300 -72.049356 15.190898 -10.402485 109.156421 -57.633909 -82.426074 -1.617000 -0.642621 -12.277483 -7.125000 0.000000 0.000000 46.644440 45.644120 44.173134 -38.484852 38.944787 -17.415221 0.338148 -0.399318 51.463076 7.125000 0.000000 0.000000 
-0.951990 18.495254 7.899395 -7.734968 -1.646831 11.638229 -19.065857 -35.072920 14.329227 -3.653409 -1.952008 -0.612634 -12.719874 39.442822 -21.175963 0.017400 0.851800 2.341300 23.233704 25.893194 1.631026 3.490177 -0.270059 1.840700 5.788112 -19.714543 0.914284 -0.080800 -1.833300 5.045100 28.926728 12.536730 -17.602141 -15.410963 0.551610 -14.481536 5.252428 -14.859231 27.856331 0.301200 -6.873200 8.612100 -72.560865 15.634623 -10.055143 109.366308 -57.568496 -82.581333 -1.611847 -0.637451 -12.220271 -7.125000 0.000000 0.000000 49.779164 43.680932 48.213209 -38.922749 39.425691 -17.737178 0.198500 -0.393376 52.527399 7.125000 0.000000 0.000000 
-0.966185 18.486212 7.898449 -7.915499 -1.548963 11.409173 -19.034221 -35.049986 14.625824 -3.653491 -1.975439 -0.651366 -12.802216 39.578271 -21.042198 0.010100 0.650100 1.786500 23.521956 25.669774 1.758524 3.483410 -0.311243 1.989852 5.716726 -19.511291 0.874223 -0.088000 -1.913900 5.267700 29.542718 12.422211 -17.307362 -15.111435 0.466386 -14.493960 5.604898 -15.017527 28.801773 0.380600 -6.907400 8.959000 -72.721299 15.217479 -9.533515 109.218349 -57.553594 -82.465241 -1.619420 -0.632673 -12.140141 -7.125000 0.000000 0.000000 51.269530 41.422031 50.580031 -39.132268 39.907770 -17.962660 0.133437 -0.363958 53.233760 7.125000 0.000000 0.000000 
-0.983534 18.482847 7.898659 -8.011435 -1.394785 11.030190 -18.921638 -34.949006 14.706420 -3.642960 -1.973542 -0.667179 -12.815417 39.520862 -20.526496 0.002700 0.334200 0.918100 23.752166 25.418680 2.008728 3.483305 -0.284115 2.051867 5.751430 -19.541856 0.741131 -0.091900 -1.955700 5.383100 29.682838 11.801958 -15.205275 -15.298400 0.425165 -14.136354 6.662139 -15.615527 29.325685 0.506600 -7.059200 9.190100 -72.051762 13.877765 -8.898175 108.742580 -57.613532 -82.095024 -1.638882 -0.627160 -11.938744 -7.125000 0.000000 0.000000 51.575543 39.609454 50.742847 -38.432370 39.788273 -17.498546 0.004194 -0.358332 54.983381 7.125000 0.000000 0.000000 
-1.001724 18.482006 7.902129 -8.025181 -0.787733 11.073636 -18.790109 -34.980982 14.628020 -3.624070 -1.947624 -0.664327 -12.781739 39.362530 -19.887519 0.000200 0.084700 0.232800 23.902425 25.182430 2.065301 3.497036 -0.274519 1.973748 5.861167 -19.879712 0.480464 -0.085100 -1.881200 5.177300 29.964283 11.946007 -16.643351 -14.665537 0.335406 -14.347672 6.542884 -15.676276 29.731655 0.538300 -7.119500 9.341800 -72.545302 14.336823 -8.452392 108.853831 -57.569478 -82.181900 -1.638840 -0.615472 -11.756640 -7.125000 0.000000 0.000000 51.832438 36.424403 51.176857 -37.332035 39.518755 -16.829795 0.067406 -0.352607 56.093858 7.125000 0.000000 0.000000 
-1.013711 18.481901 7.906860 -8.050751 -0.032726 11.072852 -18.542887 -35.125809 14.316233 -3.593856 -1.875133 -0.570719 -12.688125 39.048724 -19.048170 0.000500 -0.149300 -0.410300 24.044940 25.115114 2.218405 3.521987 -0.214553 1.819372 6.106828 -20.530843 -0.090895 -0.087100 -1.903200 5.238300 30.231437 11.741456 -16.692071 -14.367963 0.244652 -14.251511 6.921822 -15.978197 29.746299 0.614400 -7.229200 9.408100 -72.571247 14.152050 -7.962261 108.784473 -57.558278 -82.137962 -1.641697 -0.611597 -11.521514 -7.125000 0.000000 0.000000 51.150230 33.713006 50.086159 -35.799995 38.852622 -15.839771 0.128778 -0.362966 56.712672 7.125000 0.000000 0.000000 
-1.018863 18.482532 7.912012 -8.177057 0.898644 10.990709 -18.037739 -35.213057 13.749468 -3.548713 -1.781068 -0.446799 -12.539510 38.554491 -17.758708 0.007500 -0.559000 -1.535900 24.324090 25.227651 2.538264 3.555950 -0.124954 1.637807 6.459773 -21.434739 -1.002769 -0.107700 -2.116300 5.827200 30.639428 11.283792 -15.715517 -14.382389 0.118874 -13.995463 7.698160 -16.476918 29.715900 0.741500 -7.385700 9.513500 -72.299158 13.571209 -7.500325 108.578002 -57.572716 -81.991610 -1.651331 -0.604317 -11.290453 -7.125000 0.000000 0.000000 49.846666 31.375749 47.786355 -34.201096 38.034587 -14.828067 0.225665 -0.377781 56.769962 7.125000 0.000000 0.000000 
-1.022122 18.482847 7.918637 -8.404811 1.996430 11.029631 -17.249363 -35.084340 12.975866 -3.491875 -1.688142 -0.362275 -12.343533 37.923193 -16.041891 0.034600 -1.200100 -3.299500 24.813333 25.463427 2.922530 3.594056 -0.050465 1.439961 6.851083 -22.503563 -2.020975 -0.120300 -2.235700 6.157600 30.953224 11.177585 -16.152725 -14.199502 -0.022350 -14.009486 8.063242 -16.841586 29.676862 0.837200 -7.542400 9.604900 -72.271703 13.797010 -7.131317 108.521862 -57.570547 -81.970093 -1.654787 -0.595465 -11.103932 -7.125000 0.000000 0.000000 48.512043 28.642872 45.132939 -32.697298 37.255369 -13.919701 0.324056 -0.388697 56.733365 7.125000 0.000000 0.000000 
-1.020335 18.482532 7.923578 -8.565893 3.263439 11.230632 -16.365975 -34.846345 11.993888 -3.424875 -1.549179 -0.216849 -12.032105 37.060297 -14.196924 0.083500 -1.864300 -5.130900 25.328322 25.682455 3.264695 3.635762 0.019092 1.213277 7.259206 -23.658415 -3.113990 -0.130200 -2.325700 6.406800 30.344304 11.327737 -18.198426 -13.945213 -0.154328 -14.316752 8.216279 -17.101611 29.576856 0.922400 -7.686000 9.596100 -72.136569 14.856158 -6.816749 108.571148 -57.585440 -82.033800 -1.650586 -0.590046 -10.941812 -7.125000 0.000000 0.000000 47.435084 25.738180 42.295021 -31.007406 36.309259 -12.939127 0.432269 -0.401794 57.381393 7.125000 0.000000 0.000000 
